<?xml version="1.0" encoding="utf-8"?>
<!-- Generator: Adobe Illustrator 25.2.1, SVG Export Plug-In . SVG Version: 6.00 Build 0)  -->
<svg version="1.1" xmlns="http://www.w3.org/2000/svg" xmlns:xlink="http://www.w3.org/1999/xlink" x="0px" y="0px"
	 viewBox="0 0 260 260" style="enable-background:new 0 0 260 260;" xml:space="preserve">
<style type="text/css">
	.st0{clip-path:url(#SVGID_2_);}
	.st1{fill:#58595B;}
	.st2{fill:#E6E7E8;}
	.st3{fill:#BCBEC0;}
	.st4{fill:#808285;}
	.st5{fill:#6D6E71;}
	.st6{fill:#A7A9AC;}
	.st7{fill:none;stroke:#000000;stroke-width:0.7734;stroke-miterlimit:10;}
	.st8{fill:none;stroke:#000000;stroke-width:0.5403;stroke-miterlimit:10;}
	.st9{fill:none;stroke:#000000;stroke-width:0.6849;stroke-miterlimit:10;}
	.st10{fill:none;stroke:#000000;stroke-miterlimit:10;}
	.st11{fill:none;stroke:#000000;stroke-width:1.7117;stroke-miterlimit:10;}
	.st12{fill:#19B24B;}
	.st13{fill:none;stroke:#000000;stroke-width:2.1387;}
	.st14{fill:#FFFFFF;}
</style>
<g id="Layer_1">
</g>
<g id="Layer_2">
	<g>
		<path class="st12" d="M240.28,0v206.7h-36.64v-61.17l1.71-96.72l-27.11,89.74H158.5l-23.66-83.63c0,0-0.62-2.25-0.62-2.25
			c0.13,7.08,0.26,14.16,0.39,21.24c0,12.29,0.45,24.6,0.68,36.88c0.29,16.02,0.79,32.03,0.86,48.06
			c0.09,20.54,1.91,42.05-7.05,61.14c-7.79,16.59-22.11,29.94-39.41,36.12c-21.68,7.74-48.08,3.96-65.8-11.53
			c-6.14-5.2-10.94-11.78-14.32-19.74c-3.42-7.96-5.16-17.26-5.27-27.99c13.34,0,26.71-0.28,40.04,0.13c0,0,1.13,9.3,1.38,10.49
			c2,9.47,9.57,16.66,18.47,19.96c4.27,1.58,9.12,1.97,13.35,0.29c3.66-1.46,6.6-4.35,8.74-7.66c8.32-12.85,7.99-29.26,8.18-43.96
			c0.26-19.87-0.69-39.72-0.69-59.59c0-24.68,0-49.37,0-74.05c0-14.15,0-28.3,0-42.45h55.06l19.59,77.63L190.74,0H240.28z"/>
		<g>
			
				<rect x="39.6" y="137.24" transform="matrix(0.7071 -0.7071 0.7071 0.7071 -96.825 74.4202)" class="st12" width="3.63" height="33.7"/>
		</g>
		<g>
			<rect x="80.74" y="119.96" class="st12" width="3.63" height="28.48"/>
		</g>
		<circle class="st12" cx="29.68" cy="142.78" r="3.94"/>
		<circle class="st12" cx="82.65" cy="120.58" r="4.64"/>
		<path class="st12" d="M44.34,196.98c0,0-1.61-50.43,49.59-49.18l14.47,1.47l-15.19,82.23l-38.4,3.25l-23.86-16.27L44.34,196.98z
			 M73.06,200.08c0-9.13-8.82-19.8-16.7-20.11C57.75,192.35,61.15,198.53,73.06,200.08z M84.89,195.77
			c5.11-7.56,3.79-21.34-2.56-26.01C76.55,180.78,75.9,187.81,84.89,195.77z"/>
	</g>
</g>
</svg>
