<?xml version="1.0" standalone="no"?>
<!DOCTYPE svg PUBLIC "-//W3C//DTD SVG 20010904//EN"
 "http://www.w3.org/TR/2001/REC-SVG-20010904/DTD/svg10.dtd">
<svg version="1.0" xmlns="http://www.w3.org/2000/svg"
 width="700.000000pt" height="700.000000pt" viewBox="0 0 700.000000 700.000000"
 preserveAspectRatio="xMidYMid meet">
<metadata>
Created by potrace 1.11, written by Peter Selinger 2001-2013
</metadata>
<g transform="translate(0.000000,700.000000) scale(0.100000,-0.100000)"
fill="#000000" stroke="none">
<path d="M2527 5133 c1 -1028 4 -1921 6 -1986 3 -82 1 -120 -7 -122 -6 -2 -66
-6 -133 -8 l-123 -4 0 307 0 307 40 42 c32 33 40 49 40 79 0 100 -111 163
-194 109 -26 -18 -56 -74 -56 -107 0 -30 39 -97 59 -103 14 -3 16 -37 15 -318
0 -199 3 -316 9 -321 6 -3 -9 -11 -34 -17 -255 -62 -419 -146 -565 -288 -33
-32 -74 -75 -90 -95 l-29 -37 -279 278 c-236 236 -279 283 -282 311 -11 92
-108 132 -174 72 -75 -66 -18 -191 81 -180 27 3 56 -24 309 -276 251 -250 281
-277 296 -265 11 9 8 -2 -8 -26 -90 -144 -168 -360 -193 -535 -15 -114 -18
-140 -19 -193 l-1 -57 -345 1 c-190 0 -433 0 -540 0 l-195 -1 2 -57 c20 -665
303 -1153 833 -1436 186 -99 412 -169 625 -193 87 -10 371 -11 445 -1 291 37
544 131 785 290 329 217 592 547 726 909 30 82 75 241 84 298 3 19 7 46 10 60
12 64 18 108 32 240 9 87 9 1155 -1 1600 -6 289 -10 455 -21 910 -2 107 -7
377 -10 600 -4 223 -7 451 -9 508 -1 57 1 105 6 108 4 3 8 -1 8 -8 0 -7 9 -42
20 -78 11 -36 60 -209 110 -385 49 -176 96 -342 104 -370 15 -49 67 -235 185
-655 34 -118 65 -231 71 -250 6 -19 41 -143 78 -275 l68 -240 266 -3 267 -2
11 37 c6 21 17 58 25 83 7 25 39 128 70 230 31 102 58 192 60 200 2 8 45 150
95 315 51 165 98 320 105 345 18 64 320 1063 343 1135 l19 60 -3 -190 c-5
-349 -16 -1020 -30 -1735 -4 -217 -8 -827 -8 -1355 l-1 -960 490 0 490 0 3
2783 2 2782 -668 0 -667 0 -69 -237 c-103 -361 -108 -377 -111 -393 -2 -8 -45
-157 -95 -330 -51 -173 -93 -322 -95 -330 -2 -8 -52 -179 -110 -380 -58 -201
-108 -375 -111 -388 -4 -13 -8 -21 -10 -19 -2 2 -37 136 -78 298 -377 1492
-446 1768 -446 1773 0 3 -334 6 -743 6 l-743 0 3 -1867z m-247 -2770 c24 -35
65 -131 76 -178 3 -16 8 -76 9 -133 3 -114 -10 -184 -53 -271 l-26 -54 -57 61
c-31 33 -72 91 -90 128 -31 63 -34 76 -33 159 1 96 15 151 75 285 31 69 31 69
54 52 13 -9 33 -31 45 -49z m-650 -239 c83 -38 186 -130 234 -208 59 -95 103
-218 102 -281 -1 -24 -20 -23 -120 6 -121 36 -201 101 -255 209 -22 42 -57
175 -66 248 l-7 52 29 0 c15 0 53 -12 83 -26z"/>
</g>
</svg>
